<svg xmlns="http://www.w3.org/2000/svg" viewBox="0 0 32 32">
  <rect width="32" height="32" rx="5" fill="#1a9aaa"/>
  <g transform="translate(3.26,25.64) scale(0.0508,-0.0508)">
    <path d="M249 -6Q195 -6 151.0 20.0Q107 46 80.5 90.0Q54 134 54 189Q54 252 81.0 296.0Q108 340 152.5 363.0Q197 386 252 386Q311 386 359.5 352.5Q408 319 430 266L428 253L433 378H448V0H429V129L432 115Q422 89 404.0 67.0Q386 45 362.0 28.5Q338 12 309.5 3.0Q281 -6 249 -6ZM251 11Q300 11 340.0 33.0Q380 55 404.0 93.5Q428 132 429 181V222Q421 263 395.5 296.0Q370 329 332.5 349.0Q295 369 251 369Q202 369 161.5 347.0Q121 325 97.5 284.5Q74 244 74 190Q74 140 98.0 99.5Q122 59 162.0 35.0Q202 11 251 11Z" fill="#ffffff"/>
  </g>
</svg>